<svg width="8" height="8" viewBox="0 0 8 8" fill="none" xmlns="http://www.w3.org/2000/svg">
<path d="M5.97881 6.44409C5.55158 5.96694 4.93082 5.66667 4.23994 5.66667C3.54905 5.66667 2.9283 5.96694 2.50106 6.44409M7.23999 4C7.23999 5.65685 5.89684 7 4.23999 7C2.58314 7 1.23999 5.65685 1.23999 4C1.23999 2.34315 2.58314 1 4.23999 1C5.89684 1 7.23999 2.34315 7.23999 4ZM5.23999 3.66667C5.23999 4.21895 4.79228 4.66667 4.23999 4.66667C3.68771 4.66667 3.23999 4.21895 3.23999 3.66667C3.23999 3.11438 3.68771 2.66667 4.23999 2.66667C4.79228 2.66667 5.23999 3.11438 5.23999 3.66667Z" stroke="#A85370" stroke-width="0.6" stroke-linecap="round" stroke-linejoin="round"/>
</svg>
