<svg width="8" height="9" viewBox="0 0 8 9" fill="none" xmlns="http://www.w3.org/2000/svg">
<path d="M1 3.33333H7M5.5 1V1.77778M2.5 1V1.77778M1.375 1.77778H6.625C6.83211 1.77778 7 1.95189 7 2.16667V7.61111C7 7.82589 6.83211 8 6.625 8H1.375C1.16789 8 1 7.82589 1 7.61111V2.16667C1 1.95189 1.16789 1.77778 1.375 1.77778ZM5.5 6.44445H5.50075V6.44522H5.5V6.44445ZM4 6.44445H4.00075V6.44522H4V6.44445ZM2.5 6.44445H2.50075V6.44522H2.5V6.44445ZM5.5 4.88889H5.50075V4.88967H5.5V4.88889ZM4 4.88889H4.00075V4.88967H4V4.88889ZM2.5 4.88889H2.50075V4.88967H2.5V4.88889Z" stroke="#A85370" stroke-width="0.6" stroke-linecap="round" stroke-linejoin="round"/>
</svg>
