<svg width="14" height="14" viewBox="0 0 14 14" fill="none" xmlns="http://www.w3.org/2000/svg">
<g clip-path="url(#clip0_3493_6264)">
<path fill-rule="evenodd" clip-rule="evenodd" d="M3.19025 8.87823C3.23089 8.83748 3.27917 8.80516 3.33232 8.7831C3.38547 8.76105 3.44245 8.74969 3.5 8.74969C3.55755 8.74969 3.61453 8.76105 3.66768 8.7831C3.72083 8.80516 3.76911 8.83748 3.80975 8.87823L7 12.0694L10.1903 8.87823C10.2724 8.79608 10.3838 8.74992 10.5 8.74992C10.6162 8.74992 10.7276 8.79608 10.8097 8.87823C10.8919 8.96038 10.9381 9.0718 10.9381 9.18798C10.9381 9.30416 10.8919 9.41558 10.8097 9.49773L7.30975 12.9977C7.26911 13.0385 7.22083 13.0708 7.16768 13.0928C7.11453 13.1149 7.05755 13.1263 7 13.1263C6.94245 13.1263 6.88547 13.1149 6.83232 13.0928C6.77917 13.0708 6.73089 13.0385 6.69025 12.9977L3.19025 9.49773C3.14951 9.45709 3.11718 9.40881 3.09513 9.35566C3.07307 9.3025 3.06172 9.24552 3.06172 9.18798C3.06172 9.13043 3.07307 9.07345 3.09513 9.0203C3.11718 8.96715 3.14951 8.91887 3.19025 8.87823ZM3.19025 5.12273C3.23089 5.16347 3.27917 5.19579 3.33232 5.21785C3.38547 5.23991 3.44245 5.25126 3.5 5.25126C3.55755 5.25126 3.61453 5.23991 3.66768 5.21785C3.72083 5.19579 3.76911 5.16347 3.80975 5.12273L7 1.9316L10.1903 5.12273C10.2724 5.20488 10.3838 5.25103 10.5 5.25103C10.6162 5.25103 10.7276 5.20488 10.8097 5.12273C10.8919 5.04058 10.9381 4.92916 10.9381 4.81298C10.9381 4.6968 10.8919 4.58538 10.8097 4.50323L7.30975 1.00323C7.26911 0.962484 7.22083 0.930159 7.16768 0.908103C7.11453 0.886048 7.05755 0.874695 7 0.874695C6.94245 0.874695 6.88547 0.886048 6.83232 0.908103C6.77917 0.930159 6.73089 0.962484 6.69025 1.00323L3.19025 4.50323C3.14951 4.54387 3.11718 4.59215 3.09513 4.6453C3.07307 4.69845 3.06172 4.75543 3.06172 4.81298C3.06172 4.87052 3.07307 4.9275 3.09513 4.98066C3.11718 5.03381 3.14951 5.08209 3.19025 5.12273ZM0.875 7.00048C0.875 6.88444 0.921094 6.77316 1.00314 6.69112C1.08519 6.60907 1.19647 6.56298 1.3125 6.56298H12.6875C12.8035 6.56298 12.9148 6.60907 12.9969 6.69112C13.0789 6.77316 13.125 6.88444 13.125 7.00048C13.125 7.11651 13.0789 7.22779 12.9969 7.30984C12.9148 7.39188 12.8035 7.43798 12.6875 7.43798H1.3125C1.19647 7.43798 1.08519 7.39188 1.00314 7.30984C0.921094 7.22779 0.875 7.11651 0.875 7.00048Z" fill="#505050"/>
</g>
<defs>
<clipPath id="clip0_3493_6264">
<rect width="14" height="14" fill="white" transform="translate(0 0.000488281)"/>
</clipPath>
</defs>
</svg>
