<svg width="27" height="27" viewBox="0 0 27 27" fill="none" xmlns="http://www.w3.org/2000/svg">
<path d="M12.8352 26.1455H4.09405C3.28989 26.1438 2.51906 25.824 1.94981 25.256C1.38056 24.688 1.05913 23.9179 1.05566 23.1137V4.01715C1.0574 3.21185 1.37807 2.44003 1.9475 1.8706C2.51694 1.30117 3.28875 0.980493 4.09405 0.97876H22.8494" stroke="#DA627D" stroke-width="1.5" stroke-linecap="round" stroke-linejoin="round"/>
<path d="M25.8879 4.01685V23.1003C25.8879 23.9067 25.568 24.6802 24.9984 25.2511C24.4288 25.8219 23.6559 26.1435 22.8495 26.1452H16.9434" stroke="#DA627D" stroke-width="1.5" stroke-linecap="round" stroke-linejoin="round"/>
<path d="M25.7337 1.95569C26.2015 1.95569 26.5807 1.57648 26.5807 1.10871C26.5807 0.640927 26.2015 0.261719 25.7337 0.261719C25.2659 0.261719 24.8867 0.640927 24.8867 1.10871C24.8867 1.57648 25.2659 1.95569 25.7337 1.95569Z" fill="#DA627D"/>
<path d="M12.919 26.1457V17.9493H9.94824V14.0512H12.8357V10.291C12.8357 9.24668 13.2505 8.24518 13.9889 7.50676C14.7274 6.76835 15.7289 6.35352 16.7731 6.35352H20.8615V10.0613H17.8691C17.7401 10.0612 17.6125 10.087 17.4937 10.1371C17.3749 10.1872 17.2674 10.2607 17.1775 10.353C17.0875 10.4454 17.017 10.5549 16.9701 10.675C16.9232 10.795 16.9009 10.9233 16.9044 11.0522V14.0315H20.8418V17.969H16.8479V26.1457" stroke="#DA627D" stroke-width="1.5" stroke-linecap="round" stroke-linejoin="round"/>
</svg>
