<svg width="24" height="24" viewBox="0 0 24 24" fill="none" xmlns="http://www.w3.org/2000/svg">
<path fill-rule="evenodd" clip-rule="evenodd" d="M23.04 12.6414C23.04 11.8259 22.9668 11.0418 22.8309 10.2891H12V14.7375H18.1891C17.9225 16.175 17.1123 17.393 15.8943 18.2084V21.0939H19.6109C21.7855 19.0918 23.04 16.1436 23.04 12.6414Z" fill="#4285F4"/>
<path fill-rule="evenodd" clip-rule="evenodd" d="M11.9995 23.8798C15.1045 23.8798 17.7077 22.8501 19.6104 21.0937L15.8938 18.2083C14.864 18.8983 13.5467 19.306 11.9995 19.306C9.00425 19.306 6.46902 17.283 5.5647 14.5648H1.72266V17.5444C3.61493 21.3028 7.50402 23.8798 11.9995 23.8798Z" fill="#34A853"/>
<path fill-rule="evenodd" clip-rule="evenodd" d="M5.56523 14.5651C5.33523 13.8751 5.20455 13.138 5.20455 12.3801C5.20455 11.6221 5.33523 10.8851 5.56523 10.1951V7.21552H1.72318C0.944318 8.76802 0.5 10.5244 0.5 12.3801C0.5 14.2357 0.944318 15.9921 1.72318 17.5446L5.56523 14.5651Z" fill="#FBBC05"/>
<path fill-rule="evenodd" clip-rule="evenodd" d="M11.9995 5.45387C13.6879 5.45387 15.2038 6.0341 16.3956 7.17364L19.694 3.87523C17.7024 2.01955 15.0992 0.880005 11.9995 0.880005C7.50402 0.880005 3.61493 3.45705 1.72266 7.21546L5.5647 10.195C6.46902 7.47682 9.00425 5.45387 11.9995 5.45387Z" fill="#EA4335"/>
</svg>
