<svg width="17" height="20" viewBox="0 0 17 20" fill="none" xmlns="http://www.w3.org/2000/svg">
<path d="M3.15724 0.368774H14.693C15.3048 0.368774 15.8917 0.618997 16.3244 1.0644C16.757 1.50979 17.0001 2.11389 17.0001 2.74377V6.30627C17.0001 6.93616 16.757 7.54025 16.3244 7.98565C15.8917 8.43105 15.3048 8.68127 14.693 8.68127H3.15724C2.54535 8.68127 1.95852 8.43105 1.52584 7.98565C1.09317 7.54025 0.850098 6.93616 0.850098 6.30627V2.74377C0.850098 2.11389 1.09317 1.50979 1.52584 1.0644C1.95852 0.618997 2.54535 0.368774 3.15724 0.368774ZM3.15724 1.55627C2.85129 1.55627 2.55788 1.68139 2.34154 1.90409C2.12521 2.12678 2.00367 2.42883 2.00367 2.74377V6.30627C2.00367 6.62122 2.12521 6.92326 2.34154 7.14596C2.55788 7.36866 2.85129 7.49377 3.15724 7.49377H14.693C14.9989 7.49377 15.2923 7.36866 15.5087 7.14596C15.725 6.92326 15.8465 6.62122 15.8465 6.30627V2.74377C15.8465 2.42883 15.725 2.12678 15.5087 1.90409C15.2923 1.68139 14.9989 1.55627 14.693 1.55627H3.15724ZM3.15724 11.0563H14.693C15.3048 11.0563 15.8917 11.3065 16.3244 11.7519C16.757 12.1973 17.0001 12.8014 17.0001 13.4313V16.9938C17.0001 17.6237 16.757 18.2278 16.3244 18.6732C15.8917 19.1186 15.3048 19.3688 14.693 19.3688H3.15724C2.54535 19.3688 1.95852 19.1186 1.52584 18.6732C1.09317 18.2278 0.850098 17.6237 0.850098 16.9938V13.4313C0.850098 12.8014 1.09317 12.1973 1.52584 11.7519C1.95852 11.3065 2.54535 11.0563 3.15724 11.0563ZM3.15724 12.2438C2.85129 12.2438 2.55788 12.3689 2.34154 12.5916C2.12521 12.8143 2.00367 13.1163 2.00367 13.4313V16.9938C2.00367 17.3087 2.12521 17.6108 2.34154 17.8335C2.55788 18.0562 2.85129 18.1813 3.15724 18.1813H14.693C14.9989 18.1813 15.2923 18.0562 15.5087 17.8335C15.725 17.6108 15.8465 17.3087 15.8465 16.9938V13.4313C15.8465 13.1163 15.725 12.8143 15.5087 12.5916C15.2923 12.3689 14.9989 12.2438 14.693 12.2438H3.15724Z" fill="#8D8D8D"/>
<path d="M3.15724 1.55627C2.85129 1.55627 2.55788 1.68139 2.34154 1.90409C2.12521 2.12678 2.00367 2.42883 2.00367 2.74377V6.30627C2.00367 6.62122 2.12521 6.92326 2.34154 7.14596C2.55788 7.36866 2.85129 7.49377 3.15724 7.49377H14.693C14.9989 7.49377 15.2923 7.36866 15.5087 7.14596C15.725 6.92326 15.8465 6.62122 15.8465 6.30627V2.74377C15.8465 2.42883 15.725 2.12678 15.5087 1.90409C15.2923 1.68139 14.9989 1.55627 14.693 1.55627H3.15724Z" fill="#8D8D8D"/>
<path d="M3.15724 12.2438C2.85129 12.2438 2.55788 12.3689 2.34154 12.5916C2.12521 12.8143 2.00367 13.1163 2.00367 13.4313V16.9938C2.00367 17.3087 2.12521 17.6108 2.34154 17.8335C2.55788 18.0562 2.85129 18.1813 3.15724 18.1813H14.693C14.9989 18.1813 15.2923 18.0562 15.5087 17.8335C15.725 17.6108 15.8465 17.3087 15.8465 16.9938V13.4313C15.8465 13.1163 15.725 12.8143 15.5087 12.5916C15.2923 12.3689 14.9989 12.2438 14.693 12.2438H3.15724Z" fill="#8D8D8D"/>
</svg>
