<svg width="28" height="27" viewBox="0 0 28 27" fill="none" xmlns="http://www.w3.org/2000/svg">
<path d="M26.4056 4.01715V23.1006C26.4039 23.9048 26.0841 24.6756 25.5161 25.2448C24.9481 25.8141 24.1779 26.1355 23.3738 26.139H4.6119C3.80888 26.1355 3.03973 25.815 2.4719 25.2472C1.90406 24.6793 1.58353 23.9102 1.58008 23.1072V4.01715C1.5818 3.21298 1.90157 2.44215 2.46959 1.87291C3.03761 1.30366 3.80774 0.982224 4.6119 0.97876H23.3738" stroke="#DA627D" stroke-width="1.5" stroke-linecap="round" stroke-linejoin="round"/>
<path d="M26.1458 1.95569C26.6136 1.95569 26.9928 1.57648 26.9928 1.10871C26.9928 0.640927 26.6136 0.261719 26.1458 0.261719C25.678 0.261719 25.2988 0.640927 25.2988 1.10871C25.2988 1.57648 25.678 1.95569 26.1458 1.95569Z" fill="#DA627D"/>
<path d="M19.1038 9.76282C19.5716 9.76282 19.9508 9.38361 19.9508 8.91583C19.9508 8.44806 19.5716 8.06885 19.1038 8.06885C18.636 8.06885 18.2568 8.44806 18.2568 8.91583C18.2568 9.38361 18.636 9.76282 19.1038 9.76282Z" fill="#DA627D"/>
<path d="M8.93633 5.8938C8.31715 5.94016 7.73838 6.21887 7.31606 6.67405C6.89374 7.12922 6.6591 7.72722 6.65918 8.34813V18.7692C6.66091 19.4231 6.92143 20.0497 7.3838 20.5121C7.84616 20.9744 8.47276 21.2349 9.12664 21.2367H14.7637" stroke="#DA627D" stroke-width="1.5" stroke-linecap="round" stroke-linejoin="round"/>
<path d="M14.7639 21.2365H19.5479C20.2018 21.2348 20.8284 20.9743 21.2908 20.5119C21.7531 20.0496 22.0136 19.423 22.0154 18.7691V8.348C22.0136 7.69412 21.7531 7.06752 21.2908 6.60515C20.8284 6.14279 20.2018 5.88227 19.5479 5.88054H9.12683C9.06357 5.87381 8.99978 5.87381 8.93652 5.88054" stroke="#DA627D" stroke-width="1.5" stroke-linecap="round" stroke-linejoin="round"/>
<path d="M15.6494 10.107C14.9111 9.82697 14.1026 9.79042 13.342 10.0027C12.5814 10.215 11.9087 10.6649 11.4221 11.2868C10.9354 11.9087 10.6605 12.6699 10.6373 13.4592C10.6142 14.2485 10.8441 15.0245 11.2934 15.6738C11.7428 16.3231 12.388 16.8117 13.1348 17.0682C13.8816 17.3246 14.6909 17.3355 15.4444 17.0993C16.1978 16.863 16.856 16.392 17.3226 15.755C17.7893 15.118 18.04 14.3484 18.0381 13.5588" stroke="#DA627D" stroke-width="1.5" stroke-linecap="round" stroke-linejoin="round"/>
</svg>
