<svg width="122" height="107" viewBox="0 0 122 107" fill="none" xmlns="http://www.w3.org/2000/svg">
<path d="M121.806 0H0.742749V86.2388C14.2285 86.2388 26.2524 94.5209 38.0357 101.08C44.776 104.832 52.7409 107 61.2743 107C69.8077 107 77.7727 104.832 84.513 101.08C96.2962 94.5209 108.32 86.2388 121.806 86.2388V0Z" fill="#F5F5F5"/>
<path fill-rule="evenodd" clip-rule="evenodd" d="M58.2374 57.7133C58.7251 57.8192 59.4182 57.5932 60.1238 57.2654C61.032 56.844 61.9605 56.2532 62.5015 55.9842C63.7861 55.3449 65.0916 54.7392 66.3824 54.8116C69.1218 54.9666 71.4252 57.2715 72.1393 59.5607C72.1421 59.8195 71.7938 59.9138 71.6698 59.9383C71.6733 59.9527 71.2374 59.0314 70.2185 58.6572C69.2248 58.2925 68.0082 58.7432 67.1981 59.0847C65.8274 59.6611 63.9585 60.8781 62.2759 61.6429C60.695 62.3614 59.3032 62.6872 57.8814 61.5494C57.1673 60.9778 56.6508 60.0859 56.3004 58.946C55.313 55.7335 54.9129 49.7012 58.36 47.6531C62.1652 45.3912 66.6137 47.4748 69.6775 49.7968C72.2675 51.7609 74.428 55.2698 75.6158 58.1818C75.7251 58.4489 75.7924 58.6852 75.8337 58.9269C75.8758 60.8501 75.7413 62.9781 75.6551 64.893C75.2577 65.117 74.8562 65.3356 74.4525 65.5507C70.1274 67.8597 65.4434 71.5202 60.962 72.3957C54.4252 73.8599 50.4966 69.4393 49.9752 62.9528C48.7524 65.8157 46.4735 68.557 43.8056 70.909C45.7299 73.429 49.0397 76.1764 52.2752 77.2971C54.7783 78.1645 57.5436 78.215 60.0145 77.8797C66.2584 77.0322 70.8716 73.0944 76.0075 69.9563C79.3614 67.9075 82.9795 66.0902 86.1947 66.1687V71.5079C85.1015 71.4724 82.9999 71.7709 82.2388 72.0181C78.7111 73.1661 75.8281 75.3521 72.8071 77.3709C66.7882 81.3934 60.7853 83.9544 53.2864 83.0645C53.3305 80.6278 52.1673 79.3733 50.6606 78.5852C47.826 77.1025 44.7776 74.5531 42.7818 71.7777C38.8014 75.0298 34.1847 77.4009 30.9464 78.0873C30.7846 75.3603 28.8336 74.6439 27.2681 74.7409C25.9717 74.8215 24.5743 75.376 23.7446 74.7546C25.8708 74.6344 28.0901 73.8654 30.3718 73.0035C33.7531 71.7265 37.1763 69.7815 40.2345 67.4643C37.7257 62.2248 38.3368 57.5146 40.7131 53.305C43.2051 48.8919 47.9234 45.133 52.0965 41.239L52.0944 41.2356L52.1693 41.1707L52.36 40.9917L52.3726 40.9958L57.3698 36.6941C58.3221 38.2689 59.7034 39.8089 61.9122 41.3633C60.6887 43.1539 58.9641 45.019 57.2184 45.3973C55.716 45.7224 53.8162 44.0014 52.5296 41.9758C48.3137 45.7108 44.0299 49.344 41.7068 53.3358C39.4426 57.2271 38.7727 61.5487 41.2142 66.7001C45.2513 63.45 48.5345 59.5723 50.0411 55.8046C50.6809 53.8835 51.634 54.4626 51.6592 55.9582C51.6928 57.9435 52.0937 60.1719 52.9206 62.1073C54.3908 65.55 57.2086 68.0673 61.7034 66.6536C63.3453 66.0315 64.6277 65.2147 65.8835 64.5468C68.7749 63.0102 71.7433 61.3158 73.7321 60.1152C73.7279 60.1002 73.7237 60.0852 73.7181 60.0695C73.1603 58.5233 72.3839 57.2763 71.5044 56.2806C69.6277 54.156 65.8653 51.961 62.6859 51.8797C61.1736 51.8415 59.9031 52.368 58.9963 53.2859C58.3761 53.9142 57.9255 54.7262 57.6844 55.6659C57.4462 56.594 57.4469 57.544 58.236 57.7154L58.2374 57.7133ZM78.3005 64.7489C80.5443 62.7192 80.9613 60.2586 80.2367 57.5358C79.4154 54.4503 77.7272 52.2205 76.2864 50.5385C72.0461 45.5886 61.3376 38.9443 59.1876 32.929C58.1112 29.918 58.5086 27.2668 60.4336 24.6307C61.2409 23.525 61.5057 23.0299 61.887 21.7849C61.9052 21.6886 61.9234 21.5903 61.9416 21.4899C62.4595 18.5649 61.285 15.3551 58.402 11.8797C58.2163 11.6495 58.2226 11.4194 58.4266 11.1667L59.6879 9.66902C59.8022 9.53379 59.9346 9.55565 60.1056 9.73936C63.0096 12.7101 64.0895 16.2682 63.3509 20.4361C63.224 21.1546 63.0292 21.8389 62.7664 22.489C62.4847 23.2321 62.1582 23.8549 61.9564 24.447C61.4147 26.0382 61.69 27.8979 62.3978 29.5594C64.8947 35.4251 75.3649 42.2415 79.5661 47.1573C82.9221 51.0848 84.9011 54.7535 83.7357 59.181C83.1666 61.3431 81.7714 63.0177 79.0447 65.2591L78.3005 64.7489Z" fill="#DA627D"/>
<path d="M91.7054 59.9394C91.7054 76.6743 78.1375 90.2408 61.4003 90.2408C44.6632 90.2408 31.0952 76.6743 31.0952 59.9394C31.0952 43.2044 44.6632 29.6379 61.4003 29.6379C78.1375 29.6379 91.7054 43.2044 91.7054 59.9394Z" stroke="#DA627D" stroke-width="2"/>
</svg>
