<svg width="76" height="67" viewBox="0 0 76 67" fill="none" xmlns="http://www.w3.org/2000/svg">
<path d="M75.903 0H0.0969696V54C8.54132 54 16.0703 59.186 23.4486 63.293C27.6692 65.6423 32.6566 67 37.9999 67C43.3433 67 48.3307 65.6423 52.5512 63.293C59.9295 59.186 67.4586 54 75.903 54V0Z" fill="#F5F5F5"/>
<path fill-rule="evenodd" clip-rule="evenodd" d="M36.0983 36.1383C36.4037 36.2046 36.8376 36.063 37.2795 35.8578C37.8482 35.5939 38.4296 35.224 38.7684 35.0555C39.5727 34.6553 40.3902 34.2759 41.1985 34.3213C42.9137 34.4183 44.3561 35.8616 44.8032 37.295C44.805 37.4571 44.5869 37.5161 44.5092 37.5315C44.5114 37.5405 44.2385 36.9636 43.6004 36.7293C42.9782 36.5009 42.2165 36.7831 41.7092 36.997C40.8509 37.3579 39.6806 38.1199 38.6271 38.5989C37.6371 39.0487 36.7657 39.2527 35.8753 38.5403C35.4282 38.1824 35.1048 37.6239 34.8854 36.9101C34.2671 34.8986 34.0166 31.1213 36.1751 29.8388C38.5577 28.4225 41.3433 29.7272 43.2617 31.1812C44.8835 32.411 46.2363 34.6082 46.9801 36.4316C47.0485 36.5988 47.0907 36.7468 47.1166 36.8982C47.1429 38.1024 47.0586 39.4349 47.0047 40.634C46.7559 40.7742 46.5044 40.9111 46.2517 41.0458C43.5434 42.4916 40.6105 44.7837 37.8043 45.3319C33.7112 46.2487 31.2512 43.4807 30.9248 39.4191C30.1591 41.2117 28.7321 42.9282 27.0616 44.401C28.2665 45.9789 30.339 47.6993 32.3649 48.401C33.9323 48.9441 35.6638 48.9758 37.2111 48.7658C41.1208 48.2351 44.0094 45.7694 47.2254 43.8044C49.3255 42.5215 51.591 41.3836 53.6042 41.4328V44.776C52.9197 44.7537 51.6038 44.9406 51.1272 45.0954C48.9183 45.8143 47.113 47.1831 45.2214 48.4472C41.4525 50.966 37.6937 52.5696 32.9981 52.0124C33.0258 50.4866 32.2974 49.701 31.3539 49.2075C29.579 48.2791 27.6702 46.6828 26.4205 44.9449C23.9281 46.9813 21.0372 48.466 19.0095 48.8958C18.9082 47.1883 17.6866 46.7397 16.7063 46.8004C15.8945 46.8509 15.0195 47.1981 14.5 46.8089C15.8313 46.7337 17.221 46.2522 18.6497 45.7125C20.767 44.9128 22.9105 43.6949 24.8254 42.244C23.2545 38.9632 23.6372 36.0138 25.1251 33.3779C26.6855 30.6146 29.64 28.2609 32.253 25.8225L32.2517 25.8204L32.2987 25.7798L32.418 25.6677L32.4259 25.6703L35.555 22.9767C36.1513 23.9628 37.0162 24.9271 38.3993 25.9004C37.6332 27.0216 36.5533 28.1895 35.4602 28.4264C34.5194 28.6299 33.3299 27.5523 32.5242 26.2839C29.8844 28.6227 27.202 30.8977 25.7474 33.3972C24.3296 35.8338 23.9101 38.5399 25.4389 41.7655C27.9668 39.7304 30.0226 37.3023 30.966 34.943C31.3667 33.7401 31.9634 34.1027 31.9792 35.0393C32.0003 36.2824 32.2513 37.6777 32.7691 38.8896C33.6897 41.0453 35.4541 42.6216 38.2686 41.7364C39.2967 41.3468 40.0997 40.8354 40.886 40.4171C42.6965 39.455 44.5553 38.394 45.8006 37.6423C45.798 37.6328 45.7953 37.6234 45.7918 37.6136C45.4425 36.6454 44.9563 35.8646 44.4056 35.2411C43.2305 33.9107 40.8746 32.5363 38.8838 32.4854C37.9368 32.4615 37.1413 32.7912 36.5735 33.3659C36.1851 33.7594 35.903 34.2678 35.752 34.8562C35.6028 35.4374 35.6033 36.0322 36.0974 36.1396L36.0983 36.1383ZM48.6611 40.5437C50.0662 39.2728 50.3273 37.7321 49.8736 36.0271C49.3593 34.0951 48.3022 32.6988 47.4 31.6456C44.7448 28.5461 38.0395 24.3857 36.6933 20.6191C36.0193 18.7337 36.2681 17.0736 37.4735 15.423C37.979 14.7306 38.1448 14.4206 38.3835 13.641C38.3949 13.5807 38.4064 13.5192 38.4178 13.4563C38.742 11.6248 38.0066 9.61489 36.2014 7.43868C36.0851 7.29457 36.089 7.15046 36.2167 6.99223L37.0066 6.05443C37.0781 5.96976 37.161 5.98345 37.2681 6.09848C39.0865 7.95867 39.7627 10.1866 39.3002 12.7965C39.2208 13.2463 39.0988 13.6748 38.9342 14.0819C38.7578 14.5472 38.5533 14.9372 38.427 15.3079C38.0878 16.3043 38.2602 17.4688 38.7034 18.5092C40.2669 22.1821 46.823 26.4503 49.4536 29.5284C51.555 31.9877 52.7942 34.2849 52.0645 37.0572C51.7082 38.4111 50.8345 39.4597 49.1272 40.8632L48.6611 40.5437Z" fill="#DA627D"/>
<path d="M56.9311 37.5321C56.9311 47.9426 48.4907 56.3821 38.0788 56.3821C27.6669 56.3821 19.2266 47.9426 19.2266 37.5321C19.2266 27.1216 27.6669 18.6821 38.0788 18.6821C48.4907 18.6821 56.9311 27.1216 56.9311 37.5321Z" stroke="#DA627D" stroke-width="1.5"/>
</svg>
