<svg width="16" height="16" viewBox="0 0 16 16" fill="none" xmlns="http://www.w3.org/2000/svg">
<path d="M13 14C13 13.4477 13.4477 13 14 13C14.5523 13 15 13.4477 15 14C15 14.5523 14.5523 15 14 15C13.4477 15 13 14.5523 13 14Z" stroke="#4A4A7B" stroke-width="2" stroke-linecap="round" stroke-linejoin="round"/>
<path d="M7 14C7 13.4477 7.44772 13 8 13C8.55228 13 9 13.4477 9 14C9 14.5523 8.55228 15 8 15C7.44772 15 7 14.5523 7 14Z" stroke="#4A4A7B" stroke-width="2" stroke-linecap="round" stroke-linejoin="round"/>
<path d="M1 14C1 13.4477 1.44772 13 2 13C2.55228 13 3 13.4477 3 14C3 14.5523 2.55228 15 2 15C1.44772 15 1 14.5523 1 14Z" stroke="#4A4A7B" stroke-width="2" stroke-linecap="round" stroke-linejoin="round"/>
<path d="M13 8C13 7.44772 13.4477 7 14 7C14.5523 7 15 7.44772 15 8C15 8.55228 14.5523 9 14 9C13.4477 9 13 8.55228 13 8Z" stroke="#4A4A7B" stroke-width="2" stroke-linecap="round" stroke-linejoin="round"/>
<path d="M7 8C7 7.44772 7.44772 7 8 7C8.55228 7 9 7.44772 9 8C9 8.55228 8.55228 9 8 9C7.44772 9 7 8.55228 7 8Z" stroke="#4A4A7B" stroke-width="2" stroke-linecap="round" stroke-linejoin="round"/>
<path d="M1 8C1 7.44772 1.44772 7 2 7C2.55228 7 3 7.44772 3 8C3 8.55228 2.55228 9 2 9C1.44772 9 1 8.55228 1 8Z" stroke="#4A4A7B" stroke-width="2" stroke-linecap="round" stroke-linejoin="round"/>
<path d="M13 2C13 1.44772 13.4477 1 14 1C14.5523 1 15 1.44772 15 2C15 2.55228 14.5523 3 14 3C13.4477 3 13 2.55228 13 2Z" stroke="#4A4A7B" stroke-width="2" stroke-linecap="round" stroke-linejoin="round"/>
<path d="M7 2C7 1.44772 7.44772 1 8 1C8.55228 1 9 1.44772 9 2C9 2.55228 8.55228 3 8 3C7.44772 3 7 2.55228 7 2Z" stroke="#4A4A7B" stroke-width="2" stroke-linecap="round" stroke-linejoin="round"/>
<path d="M1 2C1 1.44772 1.44772 1 2 1C2.55228 1 3 1.44772 3 2C3 2.55228 2.55228 3 2 3C1.44772 3 1 2.55228 1 2Z" stroke="#4A4A7B" stroke-width="2" stroke-linecap="round" stroke-linejoin="round"/>
</svg>
