<svg width="34" height="8" viewBox="0 0 34 8" fill="none" xmlns="http://www.w3.org/2000/svg">
<path d="M8 4C8 6.20914 6.20914 8 4 8C1.79086 8 0 6.20914 0 4C0 1.79086 1.79086 0 4 0C6.20914 0 8 1.79086 8 4Z" fill="#F9F9F6"/>
<path d="M21 4C21 6.20914 19.2091 8 17 8C14.7909 8 13 6.20914 13 4C13 1.79086 14.7909 0 17 0C19.2091 0 21 1.79086 21 4Z" fill="#F9F9F6"/>
<path d="M34 4C34 6.20914 32.2091 8 30 8C27.7909 8 26 6.20914 26 4C26 1.79086 27.7909 0 30 0C32.2091 0 34 1.79086 34 4Z" fill="#F9F9F6"/>
</svg>
