<svg width="24" height="25" viewBox="0 0 24 25" fill="none" xmlns="http://www.w3.org/2000/svg">
<path d="M24 12.0367C24 18.6641 18.6274 24.0735 12 24.0735C5.37259 24.0735 1.43589e-06 18.6641 8.58275e-07 12.0367C2.80658e-07 5.4093 5.37258 -5.94017e-05 12 -5.99829e-05C18.6274 -6.0564e-05 24 5.4093 24 12.0367Z" fill="#DA627D"/>
<path d="M10.5415 16.5297C10.5415 16.1123 10.689 15.7537 10.9839 15.4539C11.2788 15.1482 11.6316 14.9954 12.0421 14.9954C12.4527 14.9954 12.8055 15.1482 13.1004 15.4539C13.3953 15.7537 13.5428 16.1123 13.5428 16.5297C13.5428 16.9471 13.3953 17.3057 13.1004 17.6055C12.8055 17.9053 12.4527 18.0553 12.0421 18.0553C11.6258 18.0553 11.2701 17.9083 10.9752 17.6143C10.6861 17.3204 10.5415 16.9589 10.5415 16.5297ZM8 9.50165C8 8.83147 8.17348 8.22596 8.52045 7.68511C8.87319 7.13838 9.31846 6.72393 9.85626 6.44175C10.3941 6.15957 10.9608 6.01848 11.5564 6.01848C12.7187 6.01848 13.5803 6.34769 14.1413 7.00611C14.708 7.65865 14.9942 8.60807 15 9.85437V9.94255H12.9529V9.85437C12.9471 9.29589 12.8488 8.89907 12.658 8.66392C12.4729 8.42877 12.1375 8.3112 11.6518 8.3112C11.2007 8.3112 10.8567 8.41995 10.6196 8.63747C10.3825 8.85498 10.2639 9.1695 10.2639 9.58101C10.2639 9.73974 10.316 9.88965 10.4201 10.0307C10.5299 10.1718 10.6687 10.3041 10.8364 10.4276C11.0099 10.5451 11.2007 10.6686 11.4089 10.7979C11.6171 10.9272 11.8253 11.0772 12.0335 11.2476C12.2416 11.4181 12.4325 11.6062 12.6059 11.812C12.7794 12.0178 12.9211 12.2794 13.031 12.5968C13.1409 12.9084 13.1958 13.2552 13.1958 13.6374V13.9019H10.8972V13.6374C10.8972 13.3375 10.8422 13.0818 10.7323 12.8702C10.6225 12.6527 10.4837 12.4822 10.316 12.3587C10.1483 12.2294 9.96035 12.1118 9.75217 12.006C9.54399 11.9002 9.33581 11.7855 9.12763 11.6621C8.92524 11.5328 8.74019 11.3858 8.57249 11.2212C8.40479 11.0507 8.26601 10.8214 8.15613 10.5334C8.05204 10.2394 8 9.89552 8 9.50165Z" fill="#F9F9F6"/>
</svg>
