<svg width="27" height="27" viewBox="0 0 27 27" fill="none" xmlns="http://www.w3.org/2000/svg">
<path d="M25.8121 4.01059V23.094C25.8104 23.8982 25.4906 24.669 24.9226 25.2383C24.3546 25.8075 23.5845 26.129 22.7803 26.1324H4.02499C3.22196 26.129 2.45281 25.8084 1.88498 25.2406C1.31715 24.6728 0.996618 23.9036 0.993164 23.1006V4.01059C0.996618 3.20756 1.31715 2.43841 1.88498 1.87058C2.45281 1.30275 3.22196 0.982214 4.02499 0.97876H22.7803" stroke="#DA627D" stroke-width="1.5" stroke-linecap="round" stroke-linejoin="round"/>
<path d="M25.8743 1.95569C26.3421 1.95569 26.7213 1.57648 26.7213 1.10871C26.7213 0.640927 26.3421 0.261719 25.8743 0.261719C25.4066 0.261719 25.0273 0.640927 25.0273 1.10871C25.0273 1.57648 25.4066 1.95569 25.8743 1.95569Z" fill="#DA627D"/>
<path d="M9.41914 14.2284C8.62491 13.9421 7.88079 13.5324 7.21417 13.0144C6.86044 12.7023 6.57259 12.3227 6.36749 11.8978C6.1624 11.473 6.0442 11.0115 6.01982 10.5404C6.01982 10.1597 5.88857 8.24352 6.53168 8.28946C6.63668 8.28946 6.72855 8.38789 6.79418 8.46664C6.96094 8.66639 7.13839 8.85698 7.32573 9.03757V9.03757C8.09677 9.78299 9.01194 10.3631 10.0151 10.7422C11.0183 11.1214 12.0884 11.2916 13.1597 11.2425C13.0574 10.6427 13.126 10.0261 13.3577 9.46343C13.5894 8.90073 13.9748 8.4146 14.4698 8.06064C14.9647 7.70668 15.5494 7.49919 16.1567 7.4619C16.7641 7.42461 17.3697 7.55903 17.9043 7.84978C18.2232 8.07158 18.5724 8.24619 18.9412 8.36821C19.2085 8.4109 19.481 8.4109 19.7483 8.36821L21.7171 8.14509C21.0473 8.92803 20.4825 9.79502 20.0371 10.7241C19.7288 11.6052 19.524 12.5191 19.4268 13.4475C19.226 14.4803 18.8235 15.4634 18.2425 16.3406C17.6615 17.2178 16.9132 17.9718 16.0406 18.5596C16.0406 18.5596 16.0406 18.5596 16.0406 18.5596C15.7932 18.7263 15.5345 18.8754 15.2662 19.0058V19.0058C14.9053 19.2083 14.5276 19.3796 14.1375 19.5177L13.7766 19.6424L13.3763 19.754C11.5123 20.1724 9.57543 20.1409 7.72604 19.6621L6.95824 19.4849L6.05919 19.2355C7.16227 19.1717 8.23374 18.8431 9.18289 18.2774C9.3732 18.1659 9.57007 18.0084 9.54382 17.7984C9.5304 17.723 9.50126 17.6514 9.45829 17.5881C9.41533 17.5247 9.3595 17.4712 9.29445 17.4309C8.61037 16.8308 8.01979 16.1318 7.54229 15.3572" stroke="#DA627D" stroke-width="1.5" stroke-linecap="round" stroke-linejoin="round"/>
</svg>
