<svg width="25" height="26" viewBox="0 0 25 26" fill="none" xmlns="http://www.w3.org/2000/svg">
<g clip-path="url(#clip0_3694_12951)">
<path d="M25 13.1798C25 16.495 23.683 19.6744 21.3388 22.0186C18.9946 24.3629 15.8152 25.6798 12.5 25.6798C9.18479 25.6798 6.00537 24.3629 3.66117 22.0186C1.31696 19.6744 0 16.495 0 13.1798C0 9.8646 1.31696 6.68518 3.66117 4.34098C6.00537 1.99677 9.18479 0.67981 12.5 0.67981C15.8152 0.67981 18.9946 1.99677 21.3388 4.34098C23.683 6.68518 25 9.8646 25 13.1798ZM8.36563 7.93918C8.21893 7.79249 8.01996 7.71007 7.8125 7.71007C7.60504 7.71007 7.40607 7.79249 7.25937 7.93918C7.11268 8.08588 7.03026 8.28485 7.03026 8.49231C7.03026 8.69977 7.11268 8.89874 7.25937 9.04543L11.3953 13.1798L7.25937 17.3142C7.18674 17.3868 7.12912 17.4731 7.08981 17.568C7.0505 17.6629 7.03026 17.7646 7.03026 17.8673C7.03026 17.97 7.0505 18.0718 7.08981 18.1667C7.12912 18.2616 7.18674 18.3478 7.25937 18.4204C7.40607 18.5671 7.60504 18.6495 7.8125 18.6495C7.91523 18.6495 8.01694 18.6293 8.11185 18.59C8.20675 18.5507 8.29299 18.4931 8.36563 18.4204L12.5 14.2845L16.6344 18.4204C16.707 18.4931 16.7932 18.5507 16.8882 18.59C16.9831 18.6293 17.0848 18.6495 17.1875 18.6495C17.2902 18.6495 17.3919 18.6293 17.4868 18.59C17.5818 18.5507 17.668 18.4931 17.7406 18.4204C17.8133 18.3478 17.8709 18.2616 17.9102 18.1667C17.9495 18.0718 17.9697 17.97 17.9697 17.8673C17.9697 17.7646 17.9495 17.6629 17.9102 17.568C17.8709 17.4731 17.8133 17.3868 17.7406 17.3142L13.6047 13.1798L17.7406 9.04543C17.8133 8.9728 17.8709 8.88656 17.9102 8.79166C17.9495 8.69675 17.9697 8.59503 17.9697 8.49231C17.9697 8.38958 17.9495 8.28787 17.9102 8.19296C17.8709 8.09805 17.8133 8.01182 17.7406 7.93918C17.668 7.86655 17.5818 7.80893 17.4868 7.76962C17.3919 7.73031 17.2902 7.71007 17.1875 7.71007C17.0848 7.71007 16.9831 7.73031 16.8882 7.76962C16.7932 7.80893 16.707 7.86655 16.6344 7.93918L12.5 12.0751L8.36563 7.93918Z" fill="#C5C5C5"/>
</g>
<defs>
<clipPath id="clip0_3694_12951">
<rect width="25" height="25" fill="white" transform="translate(0 0.67981)"/>
</clipPath>
</defs>
</svg>
