<svg width="28" height="27" viewBox="0 0 28 27" fill="none" xmlns="http://www.w3.org/2000/svg">
<path d="M26.1045 3.99367V23.08C26.1027 23.8842 25.783 24.6552 25.215 25.2245C24.647 25.7939 23.8768 26.1153 23.0727 26.1188H4.31108C3.50806 26.1153 2.73892 25.7948 2.1711 25.2269C1.60328 24.6589 1.28275 23.8897 1.2793 23.0865V3.99367C1.28102 3.18939 1.60079 2.41844 2.1688 1.84911C2.7368 1.27978 3.50693 0.958299 4.31108 0.954834H23.0727" stroke="#DA627D" stroke-width="1.5" stroke-linecap="round" stroke-linejoin="round"/>
<path d="M26.2366 1.899C26.6887 1.899 27.0552 1.53248 27.0552 1.08036C27.0552 0.628237 26.6887 0.261719 26.2366 0.261719C25.7845 0.261719 25.418 0.628237 25.418 1.08036C25.418 1.53248 25.7845 1.899 26.2366 1.899Z" fill="#DA627D"/>
<path d="M20.3398 7.9887C19.1508 7.67007 14.7409 7.63842 13.8706 7.63525H13.7763V7.63631H13.572C12.5638 7.63986 11.5557 7.6578 10.5481 7.69011L10.367 7.6975L10.276 7.70067L10.0938 7.707L9.91385 7.71438C8.73858 7.76713 7.61943 7.85154 7.10379 7.9887C6.74419 8.08565 6.41649 8.2751 6.15353 8.53805C5.89058 8.801 5.70162 9.12821 5.60559 9.48688C5.49865 9.88675 5.42348 10.4185 5.37266 10.9661L5.36207 11.0758L5.33877 11.3501L5.3303 11.4598L5.32713 11.5147L5.31972 11.6234C5.26254 12.4885 5.25407 13.2724 5.25195 13.4993V13.629C5.25756 14.3458 5.28652 15.0622 5.33877 15.7771L5.34725 15.8869L5.35572 15.9977C5.40866 16.6011 5.48701 17.2015 5.60453 17.6414C5.70072 17.9999 5.88976 18.3269 6.1527 18.5897C6.41564 18.8524 6.74326 19.0417 7.10273 19.1386C7.61837 19.2778 8.73752 19.3612 9.91279 19.4129L10.0938 19.4203L10.2749 19.4276L10.367 19.4319L10.547 19.4382C11.9658 19.4867 13.3189 19.4931 13.6461 19.4931H13.7965C14.4434 19.492 19.1116 19.4688 20.3398 19.1396C20.6994 19.0427 21.0271 18.8532 21.2901 18.5903C21.5531 18.3273 21.742 18.0001 21.838 17.6414C21.9556 17.2004 22.0339 16.6011 22.0869 15.9977L22.0964 15.8879L22.1049 15.7771C22.1811 14.7727 22.1906 13.8084 22.1917 13.6037V13.5246C22.1906 13.3273 22.1822 12.4242 22.1133 11.4598L22.1049 11.3501L22.0816 11.0758L22.071 10.9661M16.2797 13.6513L12.1783 16.0187C12.1116 16.0572 12.0283 16.0091 12.0283 15.9321V11.1952C12.0283 11.1183 12.1116 11.0701 12.1783 11.1087L16.2797 13.4781C16.3464 13.5166 16.3464 13.6128 16.2797 13.6513Z" stroke="#DA627D" stroke-width="1.5" stroke-linecap="round"/>
</svg>
